<mxfile host="app.diagrams.net" agent="Mozilla/5.0 (X11; Ubuntu; Linux x86_64; rv:130.0) Gecko/20100101 Firefox/130.0" version="24.7.14">
  <diagram name="Page-1" id="9QH60iEYrVsY6ZgM2Gov">
    <mxGraphModel dx="510" dy="451" grid="1" gridSize="10" guides="1" tooltips="1" connect="1" arrows="1" fold="1" page="1" pageScale="1" pageWidth="827" pageHeight="1169" math="1" shadow="0">
      <root>
        <mxCell id="0" />
        <mxCell id="1" parent="0" />
        <mxCell id="vCQsMHom-0I6_TzwH5Za-1" value="" style="endArrow=none;html=1;rounded=0;" parent="1" edge="1">
          <mxGeometry width="50" height="50" relative="1" as="geometry">
            <mxPoint x="240" y="330" as="sourcePoint" />
            <mxPoint x="560" y="330" as="targetPoint" />
          </mxGeometry>
        </mxCell>
        <mxCell id="vCQsMHom-0I6_TzwH5Za-2" value="" style="endArrow=none;html=1;rounded=0;" parent="1" edge="1">
          <mxGeometry width="50" height="50" relative="1" as="geometry">
            <mxPoint x="240" y="330" as="sourcePoint" />
            <mxPoint x="240" y="280" as="targetPoint" />
          </mxGeometry>
        </mxCell>
        <mxCell id="vCQsMHom-0I6_TzwH5Za-4" value="&lt;font style=&quot;font-size: 10px;&quot;&gt;\(\tau_{1}\)&lt;/font&gt;" style="rounded=0;whiteSpace=wrap;html=1;" parent="1" vertex="1">
          <mxGeometry x="240" y="310" width="120" height="20" as="geometry" />
        </mxCell>
        <mxCell id="vCQsMHom-0I6_TzwH5Za-5" value="" style="endArrow=classic;html=1;rounded=0;" parent="1" edge="1">
          <mxGeometry width="50" height="50" relative="1" as="geometry">
            <mxPoint x="560" y="330" as="sourcePoint" />
            <mxPoint x="950" y="330" as="targetPoint" />
          </mxGeometry>
        </mxCell>
        <mxCell id="vCQsMHom-0I6_TzwH5Za-6" value="Time" style="text;html=1;align=center;verticalAlign=middle;resizable=0;points=[];autosize=1;strokeColor=none;fillColor=none;" parent="1" vertex="1">
          <mxGeometry x="940" y="335" width="50" height="30" as="geometry" />
        </mxCell>
        <mxCell id="vCQsMHom-0I6_TzwH5Za-8" value="0" style="text;html=1;align=center;verticalAlign=middle;resizable=0;points=[];autosize=1;strokeColor=none;fillColor=none;" parent="1" vertex="1">
          <mxGeometry x="225" y="328" width="30" height="30" as="geometry" />
        </mxCell>
        <mxCell id="vCQsMHom-0I6_TzwH5Za-9" value="16" style="text;html=1;align=center;verticalAlign=middle;resizable=0;points=[];autosize=1;strokeColor=none;fillColor=none;" parent="1" vertex="1">
          <mxGeometry x="380" y="328" width="40" height="30" as="geometry" />
        </mxCell>
        <mxCell id="vCQsMHom-0I6_TzwH5Za-11" value="12" style="text;html=1;align=center;verticalAlign=middle;resizable=0;points=[];autosize=1;strokeColor=none;fillColor=none;" parent="1" vertex="1">
          <mxGeometry x="340" y="328" width="40" height="30" as="geometry" />
        </mxCell>
        <mxCell id="vCQsMHom-0I6_TzwH5Za-12" value="19" style="text;html=1;align=center;verticalAlign=middle;resizable=0;points=[];autosize=1;strokeColor=none;fillColor=none;" parent="1" vertex="1">
          <mxGeometry x="410" y="328" width="40" height="30" as="geometry" />
        </mxCell>
        <mxCell id="vCQsMHom-0I6_TzwH5Za-13" value="25" style="text;html=1;align=center;verticalAlign=middle;resizable=0;points=[];autosize=1;strokeColor=none;fillColor=none;" parent="1" vertex="1">
          <mxGeometry x="470" y="328" width="40" height="30" as="geometry" />
        </mxCell>
        <mxCell id="vCQsMHom-0I6_TzwH5Za-14" value="35" style="text;html=1;align=center;verticalAlign=middle;resizable=0;points=[];autosize=1;strokeColor=none;fillColor=none;" parent="1" vertex="1">
          <mxGeometry x="570" y="328" width="40" height="30" as="geometry" />
        </mxCell>
        <mxCell id="vCQsMHom-0I6_TzwH5Za-15" value="46" style="text;html=1;align=center;verticalAlign=middle;resizable=0;points=[];autosize=1;strokeColor=none;fillColor=none;" parent="1" vertex="1">
          <mxGeometry x="681" y="328" width="40" height="30" as="geometry" />
        </mxCell>
        <mxCell id="vCQsMHom-0I6_TzwH5Za-16" value="52" style="text;html=1;align=center;verticalAlign=middle;resizable=0;points=[];autosize=1;strokeColor=none;fillColor=none;" parent="1" vertex="1">
          <mxGeometry x="740" y="328" width="40" height="30" as="geometry" />
        </mxCell>
        <mxCell id="vCQsMHom-0I6_TzwH5Za-17" value="&lt;font style=&quot;font-size: 10px;&quot;&gt;\(\tau_{4}\)&lt;/font&gt;" style="rounded=0;whiteSpace=wrap;html=1;" parent="1" vertex="1">
          <mxGeometry x="360" y="310" width="130" height="20" as="geometry" />
        </mxCell>
        <mxCell id="vCQsMHom-0I6_TzwH5Za-18" value="&lt;font style=&quot;font-size: 10px;&quot;&gt;\(\tau_{3}\)&lt;/font&gt;" style="rounded=0;whiteSpace=wrap;html=1;" parent="1" vertex="1">
          <mxGeometry x="360" y="290" width="30" height="20" as="geometry" />
        </mxCell>
        <mxCell id="vCQsMHom-0I6_TzwH5Za-19" value="&lt;font style=&quot;font-size: 10px;&quot;&gt;\(\tau_{2}\)&lt;/font&gt;" style="rounded=0;whiteSpace=wrap;html=1;" parent="1" vertex="1">
          <mxGeometry x="490" y="310" width="60" height="20" as="geometry" />
        </mxCell>
        <mxCell id="vCQsMHom-0I6_TzwH5Za-20" value="62" style="text;html=1;align=center;verticalAlign=middle;resizable=0;points=[];autosize=1;strokeColor=none;fillColor=none;" parent="1" vertex="1">
          <mxGeometry x="840" y="328" width="40" height="30" as="geometry" />
        </mxCell>
        <mxCell id="vCQsMHom-0I6_TzwH5Za-22" value="&lt;font style=&quot;font-size: 10px;&quot;&gt;\(\tau_{5}\)&lt;/font&gt;" style="rounded=0;whiteSpace=wrap;html=1;" parent="1" vertex="1">
          <mxGeometry x="570" y="310" width="40" height="20" as="geometry" />
        </mxCell>
        <mxCell id="vCQsMHom-0I6_TzwH5Za-24" value="1" style="text;html=1;align=center;verticalAlign=middle;resizable=0;points=[];autosize=1;strokeColor=none;fillColor=none;" parent="1" vertex="1">
          <mxGeometry x="215" y="305" width="30" height="30" as="geometry" />
        </mxCell>
        <mxCell id="vCQsMHom-0I6_TzwH5Za-25" value="2" style="text;html=1;align=center;verticalAlign=middle;resizable=0;points=[];autosize=1;strokeColor=none;fillColor=none;" parent="1" vertex="1">
          <mxGeometry x="215" y="285" width="30" height="30" as="geometry" />
        </mxCell>
        <mxCell id="vCQsMHom-0I6_TzwH5Za-26" value="" style="endArrow=classic;html=1;rounded=0;" parent="1" edge="1">
          <mxGeometry width="50" height="50" relative="1" as="geometry">
            <mxPoint x="240" y="280" as="sourcePoint" />
            <mxPoint x="240" y="270" as="targetPoint" />
          </mxGeometry>
        </mxCell>
        <mxCell id="vCQsMHom-0I6_TzwH5Za-27" value="procs" style="text;html=1;align=center;verticalAlign=middle;resizable=0;points=[];autosize=1;strokeColor=none;fillColor=none;" parent="1" vertex="1">
          <mxGeometry x="215" y="248" width="50" height="30" as="geometry" />
        </mxCell>
        <mxCell id="U8PnpAQa9blzHeA4YVzD-3" value="&lt;div&gt;&lt;font style=&quot;font-size: 10px;&quot;&gt;\(\tau_{7}\)&lt;/font&gt;&lt;/div&gt;" style="rounded=0;whiteSpace=wrap;html=1;" parent="1" vertex="1">
          <mxGeometry x="500" y="290" width="100" height="20" as="geometry" />
        </mxCell>
        <mxCell id="U8PnpAQa9blzHeA4YVzD-4" value="&lt;font style=&quot;font-size: 10px;&quot;&gt;\(\tau_{6}\)&lt;/font&gt;" style="rounded=0;whiteSpace=wrap;html=1;" parent="1" vertex="1">
          <mxGeometry x="550" y="310" width="20" height="20" as="geometry" />
        </mxCell>
        <mxCell id="U8PnpAQa9blzHeA4YVzD-9" value="&lt;font style=&quot;font-size: 10px;&quot;&gt;\(\tau_{10}\)&lt;/font&gt;" style="rounded=0;whiteSpace=wrap;html=1;" parent="1" vertex="1">
          <mxGeometry x="610" y="310" width="10" height="20" as="geometry" />
        </mxCell>
        <mxCell id="U8PnpAQa9blzHeA4YVzD-15" value="&lt;font style=&quot;font-size: 10px;&quot;&gt;\(\tau_{8}\)&lt;/font&gt;" style="rounded=0;whiteSpace=wrap;html=1;" parent="1" vertex="1">
          <mxGeometry x="390" y="290" width="10" height="20" as="geometry" />
        </mxCell>
        <mxCell id="U8PnpAQa9blzHeA4YVzD-16" value="&lt;font style=&quot;font-size: 10px;&quot;&gt;\(\tau_{11}\)&lt;/font&gt;" style="rounded=0;whiteSpace=wrap;html=1;" parent="1" vertex="1">
          <mxGeometry x="620" y="310" width="60" height="20" as="geometry" />
        </mxCell>
        <mxCell id="U8PnpAQa9blzHeA4YVzD-17" value="&lt;font style=&quot;font-size: 10px;&quot;&gt;\(\tau_{9}\)&lt;/font&gt;" style="rounded=0;whiteSpace=wrap;html=1;" parent="1" vertex="1">
          <mxGeometry x="610" y="290" width="110" height="20" as="geometry" />
        </mxCell>
        <mxCell id="U8PnpAQa9blzHeA4YVzD-18" value="&lt;font style=&quot;font-size: 10px;&quot;&gt;\(\tau_{12}\)&lt;/font&gt;" style="rounded=0;whiteSpace=wrap;html=1;" parent="1" vertex="1">
          <mxGeometry x="400" y="290" width="100" height="20" as="geometry" />
        </mxCell>
        <mxCell id="U8PnpAQa9blzHeA4YVzD-20" value="&lt;font style=&quot;font-size: 10px;&quot;&gt;\(\tau_{14}\)&lt;/font&gt;" style="rounded=0;whiteSpace=wrap;html=1;" parent="1" vertex="1">
          <mxGeometry x="680" y="310" width="60" height="20" as="geometry" />
        </mxCell>
        <mxCell id="U8PnpAQa9blzHeA4YVzD-21" value="&lt;font style=&quot;font-size: 10px;&quot;&gt;\(\tau_{13}\)&lt;/font&gt;" style="rounded=0;whiteSpace=wrap;html=1;" parent="1" vertex="1">
          <mxGeometry x="720" y="290" width="20" height="20" as="geometry" />
        </mxCell>
        <mxCell id="U8PnpAQa9blzHeA4YVzD-23" value="&lt;font style=&quot;font-size: 10px;&quot;&gt;\(\tau_{15}\)&lt;/font&gt;" style="rounded=0;whiteSpace=wrap;html=1;" parent="1" vertex="1">
          <mxGeometry x="740" y="310" width="120" height="20" as="geometry" />
        </mxCell>
        <mxCell id="U8PnpAQa9blzHeA4YVzD-25" value="" style="rounded=0;whiteSpace=wrap;html=1;fillColor=#a20025;strokeColor=#6F0000;fontColor=#ffffff;" parent="1" vertex="1">
          <mxGeometry x="600" y="290" width="10" height="20" as="geometry" />
        </mxCell>
        <mxCell id="U8PnpAQa9blzHeA4YVzD-28" value="" style="rounded=0;whiteSpace=wrap;html=1;fillColor=#a20025;strokeColor=#6F0000;fontColor=#ffffff;" parent="1" vertex="1">
          <mxGeometry x="245" y="208" width="15" height="12" as="geometry" />
        </mxCell>
        <mxCell id="U8PnpAQa9blzHeA4YVzD-29" value="Idle proc" style="text;html=1;align=center;verticalAlign=middle;resizable=0;points=[];autosize=1;strokeColor=none;fillColor=none;fontSize=16;" parent="1" vertex="1">
          <mxGeometry x="255" y="199" width="80" height="30" as="geometry" />
        </mxCell>
        <mxCell id="yaqaLHEnzAnxCAf7iZNI-3" value="" style="endArrow=none;html=1;rounded=0;" parent="1" edge="1">
          <mxGeometry width="50" height="50" relative="1" as="geometry">
            <mxPoint x="240" y="522" as="sourcePoint" />
            <mxPoint x="560" y="522" as="targetPoint" />
          </mxGeometry>
        </mxCell>
        <mxCell id="yaqaLHEnzAnxCAf7iZNI-4" value="" style="endArrow=none;html=1;rounded=0;" parent="1" edge="1">
          <mxGeometry width="50" height="50" relative="1" as="geometry">
            <mxPoint x="240" y="522" as="sourcePoint" />
            <mxPoint x="240" y="472" as="targetPoint" />
          </mxGeometry>
        </mxCell>
        <mxCell id="yaqaLHEnzAnxCAf7iZNI-5" value="&lt;font style=&quot;font-size: 10px;&quot;&gt;\(\tau_{1}\)&lt;/font&gt;" style="rounded=0;whiteSpace=wrap;html=1;" parent="1" vertex="1">
          <mxGeometry x="240" y="502" width="120" height="20" as="geometry" />
        </mxCell>
        <mxCell id="yaqaLHEnzAnxCAf7iZNI-6" value="" style="endArrow=classic;html=1;rounded=0;" parent="1" edge="1">
          <mxGeometry width="50" height="50" relative="1" as="geometry">
            <mxPoint x="560" y="522" as="sourcePoint" />
            <mxPoint x="950" y="522" as="targetPoint" />
          </mxGeometry>
        </mxCell>
        <mxCell id="yaqaLHEnzAnxCAf7iZNI-8" value="0" style="text;html=1;align=center;verticalAlign=middle;resizable=0;points=[];autosize=1;strokeColor=none;fillColor=none;" parent="1" vertex="1">
          <mxGeometry x="225" y="520" width="30" height="30" as="geometry" />
        </mxCell>
        <mxCell id="yaqaLHEnzAnxCAf7iZNI-9" value="12" style="text;html=1;align=center;verticalAlign=middle;resizable=0;points=[];autosize=1;strokeColor=none;fillColor=none;" parent="1" vertex="1">
          <mxGeometry x="340" y="520" width="40" height="30" as="geometry" />
        </mxCell>
        <mxCell id="yaqaLHEnzAnxCAf7iZNI-11" value="25" style="text;html=1;align=center;verticalAlign=middle;resizable=0;points=[];autosize=1;strokeColor=none;fillColor=none;" parent="1" vertex="1">
          <mxGeometry x="470" y="520" width="40" height="30" as="geometry" />
        </mxCell>
        <mxCell id="yaqaLHEnzAnxCAf7iZNI-12" value="21" style="text;html=1;align=center;verticalAlign=middle;resizable=0;points=[];autosize=1;strokeColor=none;fillColor=none;" parent="1" vertex="1">
          <mxGeometry x="430" y="520" width="40" height="30" as="geometry" />
        </mxCell>
        <mxCell id="yaqaLHEnzAnxCAf7iZNI-17" value="&lt;font style=&quot;font-size: 10px;&quot;&gt;\(\tau_{4}\)&lt;/font&gt;" style="rounded=0;whiteSpace=wrap;html=1;imageWidth=25;" parent="1" vertex="1">
          <mxGeometry x="360" y="482" width="130" height="20" as="geometry" />
        </mxCell>
        <mxCell id="yaqaLHEnzAnxCAf7iZNI-18" value="&lt;font style=&quot;font-size: 10px;&quot;&gt;\(\tau_{3}\)&lt;/font&gt;" style="rounded=0;whiteSpace=wrap;html=1;" parent="1" vertex="1">
          <mxGeometry x="360" y="502" width="30" height="20" as="geometry" />
        </mxCell>
        <mxCell id="yaqaLHEnzAnxCAf7iZNI-19" value="&lt;font style=&quot;font-size: 10px;&quot;&gt;\(\tau_{2}\)&lt;/font&gt;" style="rounded=0;whiteSpace=wrap;html=1;" parent="1" vertex="1">
          <mxGeometry x="490" y="482" width="60" height="20" as="geometry" />
        </mxCell>
        <mxCell id="yaqaLHEnzAnxCAf7iZNI-20" value="34" style="text;html=1;align=center;verticalAlign=middle;resizable=0;points=[];autosize=1;strokeColor=none;fillColor=none;" parent="1" vertex="1">
          <mxGeometry x="560" y="520" width="40" height="30" as="geometry" />
        </mxCell>
        <mxCell id="yaqaLHEnzAnxCAf7iZNI-21" value="&lt;font style=&quot;font-size: 10px;&quot;&gt;\(\tau_{5}\)&lt;/font&gt;" style="rounded=0;whiteSpace=wrap;html=1;" parent="1" vertex="1">
          <mxGeometry x="570" y="482" width="40" height="20" as="geometry" />
        </mxCell>
        <mxCell id="yaqaLHEnzAnxCAf7iZNI-22" value="1" style="text;html=1;align=center;verticalAlign=middle;resizable=0;points=[];autosize=1;strokeColor=none;fillColor=none;" parent="1" vertex="1">
          <mxGeometry x="215" y="497" width="30" height="30" as="geometry" />
        </mxCell>
        <mxCell id="yaqaLHEnzAnxCAf7iZNI-23" value="2" style="text;html=1;align=center;verticalAlign=middle;resizable=0;points=[];autosize=1;strokeColor=none;fillColor=none;" parent="1" vertex="1">
          <mxGeometry x="215" y="477" width="30" height="30" as="geometry" />
        </mxCell>
        <mxCell id="yaqaLHEnzAnxCAf7iZNI-24" value="" style="endArrow=classic;html=1;rounded=0;" parent="1" edge="1">
          <mxGeometry width="50" height="50" relative="1" as="geometry">
            <mxPoint x="240" y="472" as="sourcePoint" />
            <mxPoint x="240" y="462" as="targetPoint" />
          </mxGeometry>
        </mxCell>
        <mxCell id="yaqaLHEnzAnxCAf7iZNI-25" value="procs" style="text;html=1;align=center;verticalAlign=middle;resizable=0;points=[];autosize=1;strokeColor=none;fillColor=none;" parent="1" vertex="1">
          <mxGeometry x="215" y="440" width="50" height="30" as="geometry" />
        </mxCell>
        <mxCell id="yaqaLHEnzAnxCAf7iZNI-27" value="&lt;font style=&quot;font-size: 10px;&quot;&gt;\(\tau_{7}\)&lt;/font&gt;" style="rounded=0;whiteSpace=wrap;html=1;" parent="1" vertex="1">
          <mxGeometry x="500" y="502" width="100" height="20" as="geometry" />
        </mxCell>
        <mxCell id="yaqaLHEnzAnxCAf7iZNI-28" value="&lt;font style=&quot;font-size: 10px;&quot;&gt;\(\tau_{6}\)&lt;/font&gt;" style="rounded=0;whiteSpace=wrap;html=1;" parent="1" vertex="1">
          <mxGeometry x="550" y="482" width="20" height="20" as="geometry" />
        </mxCell>
        <mxCell id="yaqaLHEnzAnxCAf7iZNI-31" value="&lt;font style=&quot;font-size: 10px;&quot;&gt;\(\tau_{10}\)&lt;/font&gt;" style="rounded=0;whiteSpace=wrap;html=1;" parent="1" vertex="1">
          <mxGeometry x="610" y="482" width="10" height="20" as="geometry" />
        </mxCell>
        <mxCell id="yaqaLHEnzAnxCAf7iZNI-36" value="&lt;font style=&quot;font-size: 10px;&quot;&gt;\(\tau_{8}\)&lt;/font&gt;" style="rounded=0;whiteSpace=wrap;html=1;" parent="1" vertex="1">
          <mxGeometry x="390" y="502" width="10" height="20" as="geometry" />
        </mxCell>
        <mxCell id="yaqaLHEnzAnxCAf7iZNI-37" value="&lt;font style=&quot;font-size: 10px;&quot;&gt;\(\tau_{11}\)&lt;/font&gt;" style="rounded=0;whiteSpace=wrap;html=1;" parent="1" vertex="1">
          <mxGeometry x="620" y="482" width="60" height="20" as="geometry" />
        </mxCell>
        <mxCell id="yaqaLHEnzAnxCAf7iZNI-38" value="&lt;font style=&quot;font-size: 10px;&quot;&gt;\(\tau_{9}\)&lt;/font&gt;" style="rounded=0;whiteSpace=wrap;html=1;" parent="1" vertex="1">
          <mxGeometry x="610" y="502" width="110" height="20" as="geometry" />
        </mxCell>
        <mxCell id="yaqaLHEnzAnxCAf7iZNI-39" value="&lt;font style=&quot;font-size: 10px;&quot;&gt;\(\tau_{12}\)&lt;/font&gt;" style="rounded=0;whiteSpace=wrap;html=1;" parent="1" vertex="1">
          <mxGeometry x="400" y="502" width="100" height="20" as="geometry" />
        </mxCell>
        <mxCell id="yaqaLHEnzAnxCAf7iZNI-40" value="&lt;font style=&quot;font-size: 10px;&quot;&gt;\(\tau_{14}\)&lt;/font&gt;" style="rounded=0;whiteSpace=wrap;html=1;" parent="1" vertex="1">
          <mxGeometry x="680" y="482" width="60" height="20" as="geometry" />
        </mxCell>
        <mxCell id="yaqaLHEnzAnxCAf7iZNI-41" value="&lt;font style=&quot;font-size: 10px;&quot;&gt;\(\tau_{13}\)&lt;/font&gt;" style="rounded=0;whiteSpace=wrap;html=1;" parent="1" vertex="1">
          <mxGeometry x="720" y="502" width="20" height="20" as="geometry" />
        </mxCell>
        <mxCell id="yaqaLHEnzAnxCAf7iZNI-42" value="&lt;font style=&quot;font-size: 10px;&quot;&gt;\(\tau_{15}\)&lt;/font&gt;" style="rounded=0;whiteSpace=wrap;html=1;" parent="1" vertex="1">
          <mxGeometry x="740" y="502" width="120" height="20" as="geometry" />
        </mxCell>
        <mxCell id="yaqaLHEnzAnxCAf7iZNI-45" value="makespan solver ILP priorities schedule" style="text;html=1;align=center;verticalAlign=middle;resizable=0;points=[];autosize=1;strokeColor=none;fillColor=none;" parent="1" vertex="1">
          <mxGeometry x="170" y="410" width="240" height="30" as="geometry" />
        </mxCell>
        <mxCell id="yaqaLHEnzAnxCAf7iZNI-88" value="makespan solver model priorities schedule" style="text;html=1;align=center;verticalAlign=middle;resizable=0;points=[];autosize=1;strokeColor=none;fillColor=none;" parent="1" vertex="1">
          <mxGeometry x="160" y="610" width="250" height="30" as="geometry" />
        </mxCell>
        <mxCell id="yaqaLHEnzAnxCAf7iZNI-91" value="29" style="text;html=1;align=center;verticalAlign=middle;resizable=0;points=[];autosize=1;strokeColor=none;fillColor=none;" parent="1" vertex="1">
          <mxGeometry x="510" y="522" width="40" height="30" as="geometry" />
        </mxCell>
        <mxCell id="yaqaLHEnzAnxCAf7iZNI-92" value="39" style="text;html=1;align=center;verticalAlign=middle;resizable=0;points=[];autosize=1;strokeColor=none;fillColor=none;" parent="1" vertex="1">
          <mxGeometry x="610" y="520" width="40" height="30" as="geometry" />
        </mxCell>
        <mxCell id="yaqaLHEnzAnxCAf7iZNI-93" value="Time" style="text;html=1;align=center;verticalAlign=middle;resizable=0;points=[];autosize=1;strokeColor=none;fillColor=none;" parent="1" vertex="1">
          <mxGeometry x="940" y="520" width="50" height="30" as="geometry" />
        </mxCell>
        <mxCell id="yaqaLHEnzAnxCAf7iZNI-94" value="50" style="text;html=1;align=center;verticalAlign=middle;resizable=0;points=[];autosize=1;strokeColor=none;fillColor=none;" parent="1" vertex="1">
          <mxGeometry x="721" y="518" width="40" height="30" as="geometry" />
        </mxCell>
        <mxCell id="yaqaLHEnzAnxCAf7iZNI-96" value="62" style="text;html=1;align=center;verticalAlign=middle;resizable=0;points=[];autosize=1;strokeColor=none;fillColor=none;" parent="1" vertex="1">
          <mxGeometry x="840" y="518" width="40" height="30" as="geometry" />
        </mxCell>
        <mxCell id="yaqaLHEnzAnxCAf7iZNI-97" value="" style="endArrow=none;html=1;rounded=0;" parent="1" edge="1">
          <mxGeometry width="50" height="50" relative="1" as="geometry">
            <mxPoint x="240" y="712" as="sourcePoint" />
            <mxPoint x="560" y="712" as="targetPoint" />
          </mxGeometry>
        </mxCell>
        <mxCell id="yaqaLHEnzAnxCAf7iZNI-98" value="" style="endArrow=none;html=1;rounded=0;" parent="1" edge="1">
          <mxGeometry width="50" height="50" relative="1" as="geometry">
            <mxPoint x="240" y="712" as="sourcePoint" />
            <mxPoint x="240" y="662" as="targetPoint" />
          </mxGeometry>
        </mxCell>
        <mxCell id="yaqaLHEnzAnxCAf7iZNI-99" value="&lt;font style=&quot;font-size: 10px;&quot;&gt;\(\tau_{1}\)&lt;/font&gt;" style="rounded=0;whiteSpace=wrap;html=1;" parent="1" vertex="1">
          <mxGeometry x="240" y="692" width="120" height="20" as="geometry" />
        </mxCell>
        <mxCell id="yaqaLHEnzAnxCAf7iZNI-100" value="" style="endArrow=classic;html=1;rounded=0;" parent="1" edge="1">
          <mxGeometry width="50" height="50" relative="1" as="geometry">
            <mxPoint x="560" y="712" as="sourcePoint" />
            <mxPoint x="950" y="712" as="targetPoint" />
          </mxGeometry>
        </mxCell>
        <mxCell id="yaqaLHEnzAnxCAf7iZNI-101" value="0" style="text;html=1;align=center;verticalAlign=middle;resizable=0;points=[];autosize=1;strokeColor=none;fillColor=none;" parent="1" vertex="1">
          <mxGeometry x="225" y="710" width="30" height="30" as="geometry" />
        </mxCell>
        <mxCell id="yaqaLHEnzAnxCAf7iZNI-102" value="12" style="text;html=1;align=center;verticalAlign=middle;resizable=0;points=[];autosize=1;strokeColor=none;fillColor=none;" parent="1" vertex="1">
          <mxGeometry x="340" y="710" width="40" height="30" as="geometry" />
        </mxCell>
        <mxCell id="yaqaLHEnzAnxCAf7iZNI-104" value="25" style="text;html=1;align=center;verticalAlign=middle;resizable=0;points=[];autosize=1;strokeColor=none;fillColor=none;" parent="1" vertex="1">
          <mxGeometry x="470" y="710" width="40" height="30" as="geometry" />
        </mxCell>
        <mxCell id="yaqaLHEnzAnxCAf7iZNI-105" value="23" style="text;html=1;align=center;verticalAlign=middle;resizable=0;points=[];autosize=1;strokeColor=none;fillColor=none;" parent="1" vertex="1">
          <mxGeometry x="450" y="710" width="40" height="30" as="geometry" />
        </mxCell>
        <mxCell id="yaqaLHEnzAnxCAf7iZNI-106" value="&lt;font style=&quot;font-size: 10px;&quot;&gt;\(\tau_{4}\)&lt;/font&gt;" style="rounded=0;whiteSpace=wrap;html=1;imageWidth=25;" parent="1" vertex="1">
          <mxGeometry x="360" y="692" width="130" height="20" as="geometry" />
        </mxCell>
        <mxCell id="yaqaLHEnzAnxCAf7iZNI-107" value="&lt;font style=&quot;font-size: 10px;&quot;&gt;\(\tau_{3}\)&lt;/font&gt;" style="rounded=0;whiteSpace=wrap;html=1;" parent="1" vertex="1">
          <mxGeometry x="550" y="672" width="30" height="20" as="geometry" />
        </mxCell>
        <mxCell id="yaqaLHEnzAnxCAf7iZNI-108" value="&lt;font style=&quot;font-size: 10px;&quot;&gt;\(\tau_{2}\)&lt;/font&gt;" style="rounded=0;whiteSpace=wrap;html=1;" parent="1" vertex="1">
          <mxGeometry x="470" y="672" width="60" height="20" as="geometry" />
        </mxCell>
        <mxCell id="yaqaLHEnzAnxCAf7iZNI-109" value="34" style="text;html=1;align=center;verticalAlign=middle;resizable=0;points=[];autosize=1;strokeColor=none;fillColor=none;" parent="1" vertex="1">
          <mxGeometry x="560" y="710" width="40" height="30" as="geometry" />
        </mxCell>
        <mxCell id="yaqaLHEnzAnxCAf7iZNI-110" value="&lt;font style=&quot;font-size: 10px;&quot;&gt;\(\tau_{5}\)&lt;/font&gt;" style="rounded=0;whiteSpace=wrap;html=1;" parent="1" vertex="1">
          <mxGeometry x="580" y="672" width="40" height="20" as="geometry" />
        </mxCell>
        <mxCell id="yaqaLHEnzAnxCAf7iZNI-111" value="1" style="text;html=1;align=center;verticalAlign=middle;resizable=0;points=[];autosize=1;strokeColor=none;fillColor=none;" parent="1" vertex="1">
          <mxGeometry x="215" y="687" width="30" height="30" as="geometry" />
        </mxCell>
        <mxCell id="yaqaLHEnzAnxCAf7iZNI-112" value="2" style="text;html=1;align=center;verticalAlign=middle;resizable=0;points=[];autosize=1;strokeColor=none;fillColor=none;" parent="1" vertex="1">
          <mxGeometry x="215" y="667" width="30" height="30" as="geometry" />
        </mxCell>
        <mxCell id="yaqaLHEnzAnxCAf7iZNI-113" value="" style="endArrow=classic;html=1;rounded=0;" parent="1" edge="1">
          <mxGeometry width="50" height="50" relative="1" as="geometry">
            <mxPoint x="240" y="662" as="sourcePoint" />
            <mxPoint x="240" y="652" as="targetPoint" />
          </mxGeometry>
        </mxCell>
        <mxCell id="yaqaLHEnzAnxCAf7iZNI-114" value="procs" style="text;html=1;align=center;verticalAlign=middle;resizable=0;points=[];autosize=1;strokeColor=none;fillColor=none;" parent="1" vertex="1">
          <mxGeometry x="215" y="630" width="50" height="30" as="geometry" />
        </mxCell>
        <mxCell id="yaqaLHEnzAnxCAf7iZNI-115" value="&lt;font style=&quot;font-size: 10px;&quot;&gt;\(\tau_{7}\)&lt;/font&gt;" style="rounded=0;whiteSpace=wrap;html=1;" parent="1" vertex="1">
          <mxGeometry x="490" y="692" width="100" height="20" as="geometry" />
        </mxCell>
        <mxCell id="yaqaLHEnzAnxCAf7iZNI-116" value="&lt;font style=&quot;font-size: 10px;&quot;&gt;\(\tau_{6}\)&lt;/font&gt;" style="rounded=0;whiteSpace=wrap;html=1;" parent="1" vertex="1">
          <mxGeometry x="530" y="672" width="20" height="20" as="geometry" />
        </mxCell>
        <mxCell id="yaqaLHEnzAnxCAf7iZNI-117" value="&lt;font style=&quot;font-size: 10px;&quot;&gt;\(\tau_{10}\)&lt;/font&gt;" style="rounded=0;whiteSpace=wrap;html=1;" parent="1" vertex="1">
          <mxGeometry x="620" y="672" width="10" height="20" as="geometry" />
        </mxCell>
        <mxCell id="yaqaLHEnzAnxCAf7iZNI-118" value="&lt;font style=&quot;font-size: 10px;&quot;&gt;\(\tau_{8}\)&lt;/font&gt;" style="rounded=0;whiteSpace=wrap;html=1;" parent="1" vertex="1">
          <mxGeometry x="360" y="672" width="10" height="20" as="geometry" />
        </mxCell>
        <mxCell id="yaqaLHEnzAnxCAf7iZNI-119" value="&lt;font style=&quot;font-size: 10px;&quot;&gt;\(\tau_{11}\)&lt;/font&gt;" style="rounded=0;whiteSpace=wrap;html=1;" parent="1" vertex="1">
          <mxGeometry x="630" y="672" width="60" height="20" as="geometry" />
        </mxCell>
        <mxCell id="yaqaLHEnzAnxCAf7iZNI-120" value="&lt;font style=&quot;font-size: 10px;&quot;&gt;\(\tau_{9}\)&lt;/font&gt;" style="rounded=0;whiteSpace=wrap;html=1;" parent="1" vertex="1">
          <mxGeometry x="620" y="692" width="110" height="20" as="geometry" />
        </mxCell>
        <mxCell id="yaqaLHEnzAnxCAf7iZNI-121" value="&lt;font style=&quot;font-size: 10px;&quot;&gt;\(\tau_{12}\)&lt;/font&gt;" style="rounded=0;whiteSpace=wrap;html=1;" parent="1" vertex="1">
          <mxGeometry x="370" y="672" width="100" height="20" as="geometry" />
        </mxCell>
        <mxCell id="yaqaLHEnzAnxCAf7iZNI-122" value="&lt;font style=&quot;font-size: 10px;&quot;&gt;\(\tau_{14}\)&lt;/font&gt;" style="rounded=0;whiteSpace=wrap;html=1;" parent="1" vertex="1">
          <mxGeometry x="690" y="672" width="60" height="20" as="geometry" />
        </mxCell>
        <mxCell id="yaqaLHEnzAnxCAf7iZNI-123" value="&lt;font style=&quot;font-size: 10px;&quot;&gt;\(\tau_{13}\)&lt;/font&gt;" style="rounded=0;whiteSpace=wrap;html=1;" parent="1" vertex="1">
          <mxGeometry x="730" y="692" width="20" height="20" as="geometry" />
        </mxCell>
        <mxCell id="yaqaLHEnzAnxCAf7iZNI-124" value="&lt;font style=&quot;font-size: 10px;&quot;&gt;\(\tau_{15}\)&lt;/font&gt;" style="rounded=0;whiteSpace=wrap;html=1;" parent="1" vertex="1">
          <mxGeometry x="750" y="692" width="120" height="20" as="geometry" />
        </mxCell>
        <mxCell id="yaqaLHEnzAnxCAf7iZNI-125" value="29" style="text;html=1;align=center;verticalAlign=middle;resizable=0;points=[];autosize=1;strokeColor=none;fillColor=none;" parent="1" vertex="1">
          <mxGeometry x="510" y="712" width="40" height="30" as="geometry" />
        </mxCell>
        <mxCell id="yaqaLHEnzAnxCAf7iZNI-126" value="39" style="text;html=1;align=center;verticalAlign=middle;resizable=0;points=[];autosize=1;strokeColor=none;fillColor=none;" parent="1" vertex="1">
          <mxGeometry x="610" y="710" width="40" height="30" as="geometry" />
        </mxCell>
        <mxCell id="yaqaLHEnzAnxCAf7iZNI-127" value="Time" style="text;html=1;align=center;verticalAlign=middle;resizable=0;points=[];autosize=1;strokeColor=none;fillColor=none;" parent="1" vertex="1">
          <mxGeometry x="940" y="710" width="50" height="30" as="geometry" />
        </mxCell>
        <mxCell id="yaqaLHEnzAnxCAf7iZNI-128" value="51" style="text;html=1;align=center;verticalAlign=middle;resizable=0;points=[];autosize=1;strokeColor=none;fillColor=none;" parent="1" vertex="1">
          <mxGeometry x="730" y="708" width="40" height="30" as="geometry" />
        </mxCell>
        <mxCell id="yaqaLHEnzAnxCAf7iZNI-129" value="63" style="text;html=1;align=center;verticalAlign=middle;resizable=0;points=[];autosize=1;strokeColor=none;fillColor=none;" parent="1" vertex="1">
          <mxGeometry x="850" y="708" width="40" height="30" as="geometry" />
        </mxCell>
        <mxCell id="yaqaLHEnzAnxCAf7iZNI-131" value="" style="rounded=0;whiteSpace=wrap;html=1;fillColor=#a20025;strokeColor=#6F0000;fontColor=#ffffff;" parent="1" vertex="1">
          <mxGeometry x="590" y="692" width="30" height="20" as="geometry" />
        </mxCell>
        <mxCell id="yaqaLHEnzAnxCAf7iZNI-135" value="31" style="text;html=1;align=center;verticalAlign=middle;resizable=0;points=[];autosize=1;strokeColor=none;fillColor=none;" parent="1" vertex="1">
          <mxGeometry x="530" y="328" width="40" height="30" as="geometry" />
        </mxCell>
        <mxCell id="yaqaLHEnzAnxCAf7iZNI-136" value="ILP schedule" style="text;html=1;align=center;verticalAlign=middle;resizable=0;points=[];autosize=1;strokeColor=none;fillColor=none;" parent="1" vertex="1">
          <mxGeometry x="230" y="229" width="90" height="30" as="geometry" />
        </mxCell>
        <mxCell id="x-y-zXlEzihEmK1Bj-k9-3" value="" style="rounded=0;whiteSpace=wrap;html=1;fillColor=#a20025;strokeColor=#6F0000;fontColor=#ffffff;" vertex="1" parent="1">
          <mxGeometry x="600" y="502" width="10" height="20" as="geometry" />
        </mxCell>
      </root>
    </mxGraphModel>
  </diagram>
</mxfile>
